<svg width="170" height="170" viewBox="0 0 170 170" fill="none" xmlns="http://www.w3.org/2000/svg">
<path d="M29.76 77.256C32.96 77.5973 35.584 78.6853 37.632 80.52C39.68 82.3547 40.704 84.744 40.704 87.688C40.704 89.992 40.0427 92.2533 38.72 94.472C37.44 96.648 35.456 98.4613 32.768 99.912C30.1227 101.363 26.8373 102.088 22.912 102.088C20.1387 102.088 17.536 101.725 15.104 101C12.672 100.317 10.7947 99.464 9.472 98.44C9.17333 99.2933 8.81067 99.8693 8.384 100.168C7.95733 100.424 7.424 100.552 6.784 100.552C6.48533 100.552 6.208 100.509 5.952 100.424C5.73867 100.339 5.41867 100.211 4.992 100.04C5.93067 98.376 6.61333 96.648 7.04 94.856C12.416 72.6267 15.104 60.6587 15.104 58.952C15.104 58.696 15.0187 58.5253 14.848 58.44C14.72 58.312 14.464 58.248 14.08 58.248C13.3973 58.248 12.032 58.4613 9.984 58.888C8.02133 59.3147 6.74133 59.528 6.144 59.528C4.864 59.528 4.224 58.9307 4.224 57.736C4.224 57.3093 4.24533 56.8613 4.288 56.392C4.37333 55.9227 4.48 55.496 4.608 55.112C4.992 55.496 5.46133 55.7307 6.016 55.816C6.57067 55.9013 7.68 55.9653 9.344 56.008L15.616 56.136C15.7867 56.136 16.0427 56.1573 16.384 56.2C16.7253 56.2 17.3013 56.2 18.112 56.2C23.0613 56.328 26.9653 56.5627 29.824 56.904C32.6827 57.2453 35.072 58.056 36.992 59.336C38.912 60.5733 39.872 62.5147 39.872 65.16C39.872 67.8053 38.9333 70.2373 37.056 72.456C35.2213 74.632 32.7893 76.232 29.76 77.256ZM22.144 99.464C25.088 99.464 27.648 98.952 29.824 97.928C32.0427 96.8613 33.728 95.4533 34.88 93.704C36.0747 91.912 36.672 89.9493 36.672 87.816C36.672 85.128 35.7333 83.016 33.856 81.48C31.9787 79.944 29.3973 79.176 26.112 79.176C23.296 79.176 21.2053 79.2613 19.84 79.432C19.3707 79.3467 19.1147 78.8347 19.072 77.896V77.448C19.072 76.7227 19.2213 76.232 19.52 75.976C19.8187 75.976 20.4587 76.0187 21.44 76.104C22.4213 76.1893 23.296 76.232 24.064 76.232C27.4773 76.232 30.2933 75.336 32.512 73.544C34.7733 71.752 35.904 69.3413 35.904 66.312C35.904 63.4107 34.7733 61.3413 32.512 60.104C30.2507 58.824 27.0507 58.184 22.912 58.184C21.4613 58.184 20.416 58.3333 19.776 58.632C19.136 58.888 18.624 59.4427 18.24 60.296C17.856 61.1067 17.3653 62.6427 16.768 64.904C14.592 73.0533 12.3733 83.208 10.112 95.368C13.5253 98.0987 17.536 99.464 22.144 99.464ZM78.2845 78.152C78.4552 78.1947 78.6045 78.3227 78.7325 78.536C78.8605 78.7493 78.9245 78.984 78.9245 79.24C78.9245 80.136 78.4978 81.0107 77.6445 81.864C76.8338 82.6747 75.7458 83.336 74.3805 83.848C73.0578 84.36 71.7138 84.616 70.3485 84.616C68.2152 84.616 66.3805 84.0613 64.8445 82.952C63.3512 81.8427 62.3912 80.2853 61.9645 78.28C60.0445 78.4933 58.2738 79.7093 56.6525 81.928C55.0738 84.1467 53.9645 86.5573 53.3245 89.16C53.2392 89.5867 52.9192 90.9093 52.3645 93.128C51.8098 95.304 51.2765 97.8853 50.7645 100.872C50.7218 101 50.6578 101.085 50.5725 101.128C50.5298 101.213 50.4018 101.256 50.1885 101.256C49.8898 101.256 49.4418 101.128 48.8445 100.872C48.2472 100.616 47.9485 100.339 47.9485 100.04C47.9485 99.4427 48.0552 98.6533 48.2685 97.672C50.8712 85.64 52.5565 78.1947 53.3245 75.336C53.4098 74.952 53.4952 74.696 53.5805 74.568C53.7085 74.44 53.9005 74.376 54.1565 74.376C54.3272 74.376 54.6898 74.5253 55.2445 74.824C55.7992 75.08 56.2472 75.3573 56.5885 75.656L55.4365 79.368L55.0525 80.648C56.0338 79.112 57.1645 77.8747 58.4445 76.936C59.7245 75.9973 61.0898 75.528 62.5405 75.528C62.9672 75.528 63.3938 75.5707 63.8205 75.656C64.2472 75.7413 64.5458 75.848 64.7165 75.976C64.7165 78.0667 65.2498 79.624 66.3165 80.648C67.4258 81.6293 68.9618 82.12 70.9245 82.12C72.6738 82.12 74.1245 81.8213 75.2765 81.224C76.4285 80.6267 77.4312 79.6027 78.2845 78.152ZM79.252 101.448C77.7587 101.448 76.4147 100.957 75.22 99.976C74.068 98.952 73.492 97.4587 73.492 95.496C74.132 93.448 75.2413 88.904 76.82 81.864C77.588 78.408 78.0573 76.3387 78.228 75.656C78.7827 74.7173 79.5507 74.248 80.532 74.248C81.172 74.248 81.492 74.4613 81.492 74.888C81.1933 75.9547 80.7667 77.6613 80.212 80.008C79.7 82.312 79.2947 84.1253 78.996 85.448C77.844 90.7387 77.0547 94.1307 76.628 95.624C76.628 96.6053 76.9053 97.3733 77.46 97.928C78.0573 98.44 78.8253 98.696 79.764 98.696C81.8973 98.696 84.0307 97.9493 86.164 96.456C88.34 94.92 90.2387 93.1493 91.86 91.144C93.524 89.1387 94.7613 87.4107 95.572 85.96C95.828 86.0453 95.9987 86.1947 96.084 86.408C96.1693 86.5787 96.212 86.8987 96.212 87.368C96.212 88.008 95.9987 88.6693 95.572 89.352C93.268 92.9787 90.6867 95.9013 87.828 98.12C84.9693 100.339 82.1107 101.448 79.252 101.448ZM82.196 66.248C81.5987 66.248 81.1293 66.056 80.788 65.672C80.4467 65.2453 80.276 64.712 80.276 64.072C80.276 63.2187 80.5533 62.4507 81.108 61.768C81.6627 61.0427 82.3667 60.68 83.22 60.68C83.9027 60.68 84.3933 60.8933 84.692 61.32C85.0333 61.7467 85.204 62.2587 85.204 62.856C85.204 63.7093 84.9053 64.4987 84.308 65.224C83.7533 65.9067 83.0493 66.248 82.196 66.248ZM112.776 71.88C113.288 72.392 113.8 72.8187 114.312 73.16C114.738 73.5013 115.016 73.7787 115.144 73.992C115.314 74.1627 115.4 74.4187 115.4 74.76C115.4 75.1013 115.314 75.528 115.144 76.04C114.29 79.3253 113.16 84.04 111.752 90.184C110.813 94.3653 109.96 97.9493 109.192 100.936C106.973 109.939 104.69 117.192 102.344 122.696C100.04 128.2 97.1382 132.403 93.6395 135.304C90.1835 138.248 85.8528 139.72 80.6475 139.72C77.2342 139.72 74.3542 139.123 72.0075 137.928C69.6608 136.776 67.9328 135.304 66.8235 133.512C65.7142 131.72 65.1595 129.885 65.1595 128.008C65.1595 127.581 65.2022 127.219 65.2875 126.92C65.3728 126.664 65.5862 126.259 65.9275 125.704C68.4448 132.573 73.3942 136.008 80.7755 136.008C85.3835 136.008 89.2235 134.643 92.2955 131.912C95.3675 129.224 97.9488 125.405 100.04 120.456C102.13 115.549 104.2 109.064 106.248 101L106.568 99.72C106.653 99.3787 106.738 99.0587 106.824 98.76C106.909 98.4613 106.973 98.1627 107.016 97.864C105.821 99.016 104.434 99.912 102.856 100.552C101.277 101.192 99.9542 101.512 98.8875 101.512C97.7782 101.512 96.6902 101.149 95.6235 100.424C94.5995 99.6987 93.7675 98.8027 93.1275 97.736C92.4875 96.6267 92.1675 95.56 92.1675 94.536C92.4235 93.512 92.7222 92.2107 93.0635 90.632C93.4048 89.0533 93.6608 87.8373 93.8315 86.984L95.3675 80.072C95.5808 79.176 96.2635 78.216 97.4155 77.192C98.5675 76.168 99.8688 75.3147 101.32 74.632C102.813 73.9493 104.093 73.608 105.16 73.608C106.312 73.608 107.442 74.0347 108.552 74.888C109.661 75.7413 110.642 76.872 111.496 78.28C111.752 77.0853 111.986 75.6773 112.2 74.056L112.52 71.944L112.776 71.88ZM110.728 81.672C109.917 80.0933 108.978 78.8347 107.912 77.896C106.888 76.9573 105.885 76.488 104.904 76.488C104.221 76.488 103.389 76.7227 102.408 77.192C101.426 77.6187 100.53 78.216 99.7195 78.984C98.9088 79.7093 98.3968 80.52 98.1835 81.416C97.8848 82.696 97.3302 85.5547 96.5195 89.992L95.7515 94.344C95.7515 95.368 96.1142 96.328 96.8395 97.224C97.6075 98.12 98.4822 98.568 99.4635 98.568C100.189 98.568 101.213 98.312 102.536 97.8C103.858 97.288 105.074 96.5627 106.184 95.624C107.293 94.6427 107.997 93.512 108.296 92.232L110.728 81.672ZM155.214 31.368C158.883 31.368 161.785 32.392 163.918 34.44C166.051 36.4453 167.118 39.2827 167.118 42.952L166.67 43.72C165.731 40.8187 164.259 38.6853 162.254 37.32C160.249 35.912 157.838 35.208 155.022 35.208C149.091 35.208 144.057 38.5573 139.918 45.256C135.779 51.912 132.195 61.5333 129.166 74.12L127.502 81.352L126.67 85.064C128.419 82.5893 130.638 80.2 133.326 77.896C136.014 75.5493 138.041 74.376 139.406 74.376C139.747 74.376 140.238 74.696 140.878 75.336C141.561 75.976 141.902 76.4453 141.902 76.744C141.091 79.0907 140.131 82.5253 139.022 87.048C137.913 91.5707 137.358 94.4507 137.358 95.688C137.358 96.8827 137.55 97.7573 137.934 98.312C138.318 98.824 139.107 99.08 140.302 99.08C142.435 99.08 144.505 98.2693 146.51 96.648C148.515 95.0267 150.243 93.192 151.694 91.144C153.187 89.0533 154.318 87.2187 155.086 85.64C155.385 85.7253 155.619 85.8747 155.79 86.088C155.961 86.3013 156.067 86.6213 156.11 87.048V87.24C156.11 87.752 155.939 88.3493 155.598 89.032C153.635 92.616 151.118 95.6453 148.046 98.12C144.974 100.552 141.987 101.768 139.086 101.768C137.593 101.768 136.398 101.299 135.502 100.36C134.606 99.4213 134.158 98.0987 134.158 96.392C134.158 94.728 134.414 92.68 134.926 90.248C135.481 87.816 136.206 84.9573 137.102 81.672C137.059 81.8853 137.294 81.0107 137.806 79.048C137.763 78.8773 137.657 78.728 137.486 78.6C137.315 78.472 137.166 78.408 137.038 78.408C136.611 78.408 135.609 79.112 134.03 80.52C132.451 81.928 130.851 83.6133 129.23 85.576C127.609 87.5387 126.393 89.3733 125.582 91.08C125.155 92.7867 124.729 94.92 124.302 97.48C124.259 97.7787 124.217 98.0987 124.174 98.44C124.131 98.7813 124.067 99.1227 123.982 99.464C123.854 100.232 123.726 100.744 123.598 101C123.513 101.299 123.342 101.448 123.086 101.448C122.574 101.448 121.998 101.32 121.358 101.064C120.718 100.808 120.398 100.488 120.398 100.104C120.398 99.5493 120.526 98.7387 120.782 97.672L126.35 74.056C129.465 60.744 133.433 50.312 138.254 42.76C143.075 35.1653 148.729 31.368 155.214 31.368ZM176.998 90.376C177.211 90.6747 177.318 91.0373 177.318 91.464C177.318 91.8053 177.254 92.104 177.126 92.36C176.998 92.616 176.785 92.936 176.486 93.32C175.377 94.6427 173.819 95.9653 171.814 97.288C169.851 98.568 167.782 99.6133 165.606 100.424C163.43 101.235 161.531 101.64 159.91 101.64C158.075 101.64 156.539 101.085 155.302 99.976C154.107 98.824 153.51 97.1173 153.51 94.856C153.51 91.9973 154.534 86.6213 156.582 78.728L149.798 78.984C149.713 78.9413 149.585 78.8773 149.414 78.792C149.286 78.664 149.201 78.5573 149.158 78.472C149.286 78.2587 149.521 77.832 149.862 77.192C150.203 76.552 150.502 76.104 150.758 75.848L157.35 75.912C158.758 70.7067 160.379 65.352 162.214 59.848C162.982 59.2507 163.963 58.6107 165.158 57.928C166.353 57.2027 167.078 56.84 167.334 56.84C167.718 57.0107 167.953 57.2453 168.038 57.544C167.27 57.8427 166.673 58.248 166.246 58.76C165.819 59.2293 165.393 60.0187 164.966 61.128C163.729 64.2853 162.235 69.2133 160.486 75.912L176.806 75.976L176.87 77C176.87 77.3413 176.806 77.576 176.678 77.704C176.55 77.832 176.251 77.9173 175.782 77.96C175.185 78.0027 169.851 78.216 159.782 78.6C157.819 86.6213 156.838 91.976 156.838 94.664C156.838 96.1573 157.201 97.2667 157.926 97.992C158.651 98.6747 159.761 99.016 161.254 99.016C165.606 99.016 170.854 96.136 176.998 90.376Z" fill="#F5F5F5"/>
</svg>
